<svg xmlns="http://www.w3.org/2000/svg" xmlns:xlink="http://www.w3.org/1999/xlink" contentStyleType="text/css" data-diagram-type="CLASS" height="716px" preserveAspectRatio="none" style="width:965px;height:716px;background:#FFFFFF;" version="1.1" viewBox="0 0 965 716" width="965px" zoomAndPan="magnify"><title>Diagramma delle Classi - LibManagementCLI</title><defs/><g><g class="title" data-source-line="1"><text fill="#000000" font-family="Arial" font-size="14" font-weight="bold" lengthAdjust="spacing" textLength="351.9619" x="299.519" y="22.9951">Diagramma delle Classi - LibManagementCLI</text></g><!--cluster main--><g class="cluster" data-entity="main" data-source-line="20" data-uid="ent0003" id="cluster_main"><path d="M325.5,43.2969 L356.9863,43.2969 A3.75,3.75 0 0 1 359.4863,45.7969 L366.4863,62.1016 L406.5,62.1016 A2.5,2.5 0 0 1 409,64.6016 L409,115.7969 A2.5,2.5 0 0 1 406.5,118.2969 L325.5,118.2969 A2.5,2.5 0 0 1 323,115.7969 L323,45.7969 A2.5,2.5 0 0 1 325.5,43.2969" fill="#F7F7F7" style="stroke:#000000;stroke-width:1.5;"/><line style="stroke:#000000;stroke-width:1.5;" x1="323" x2="366.4863" y1="62.1016" y2="62.1016"/><text fill="#000000" font-family="Arial" font-size="11" font-weight="bold" lengthAdjust="spacing" textLength="30.4863" x="327" y="55.5073">main</text></g><!--cluster ui--><g class="cluster" data-entity="ui" data-source-line="24" data-uid="ent0005" id="cluster_ui"><path d="M346.5,142.2969 L359.1016,142.2969 A3.75,3.75 0 0 1 361.6016,144.7969 L368.6016,161.1016 L529.5,161.1016 A2.5,2.5 0 0 1 532,163.6016 L532,214.7969 A2.5,2.5 0 0 1 529.5,217.2969 L346.5,217.2969 A2.5,2.5 0 0 1 344,214.7969 L344,144.7969 A2.5,2.5 0 0 1 346.5,142.2969" fill="#F7F7F7" style="stroke:#000000;stroke-width:1.5;"/><line style="stroke:#000000;stroke-width:1.5;" x1="344" x2="368.6016" y1="161.1016" y2="161.1016"/><text fill="#000000" font-family="Arial" font-size="11" font-weight="bold" lengthAdjust="spacing" textLength="11.6016" x="348" y="154.5073">ui</text></g><!--cluster service--><g class="cluster" data-entity="service" data-source-line="28" data-uid="ent0007" id="cluster_service"><path d="M8.5,241.2969 L53.8545,241.2969 A3.75,3.75 0 0 1 56.3545,243.7969 L63.3545,260.1016 L354.5,260.1016 A2.5,2.5 0 0 1 357,262.6016 L357,523.2069 A2.5,2.5 0 0 1 354.5,525.7069 L8.5,525.7069 A2.5,2.5 0 0 1 6,523.2069 L6,243.7969 A2.5,2.5 0 0 1 8.5,241.2969" fill="#F7F7F7" style="stroke:#000000;stroke-width:1.5;"/><line style="stroke:#000000;stroke-width:1.5;" x1="6" x2="63.3545" y1="260.1016" y2="260.1016"/><text fill="#000000" font-family="Arial" font-size="11" font-weight="bold" lengthAdjust="spacing" textLength="44.3545" x="10" y="253.5073">service</text></g><!--cluster dao--><g class="cluster" data-entity="dao" data-source-line="35" data-uid="ent0012" id="cluster_dao"><path d="M383.5,347.9069 L407.354,347.9069 A3.75,3.75 0 0 1 409.854,350.4069 L416.854,366.7116 L540.5,366.7116 A2.5,2.5 0 0 1 543,369.2116 L543,523.2069 A2.5,2.5 0 0 1 540.5,525.7069 L383.5,525.7069 A2.5,2.5 0 0 1 381,523.2069 L381,350.4069 A2.5,2.5 0 0 1 383.5,347.9069" fill="#F7F7F7" style="stroke:#000000;stroke-width:1.5;"/><line style="stroke:#000000;stroke-width:1.5;" x1="381" x2="416.854" y1="366.7116" y2="366.7116"/><text fill="#000000" font-family="Arial" font-size="11" font-weight="bold" lengthAdjust="spacing" textLength="22.854" x="385" y="360.1173">dao</text></g><!--cluster model--><g class="cluster" data-entity="model" data-source-line="40" data-uid="ent0015" id="cluster_model"><path d="M569.5,450.7069 L608.624,450.7069 A3.75,3.75 0 0 1 611.124,453.2069 L618.124,469.5116 L800.5,469.5116 A2.5,2.5 0 0 1 803,472.0116 L803,706.8169 A2.5,2.5 0 0 1 800.5,709.3169 L569.5,709.3169 A2.5,2.5 0 0 1 567,706.8169 L567,453.2069 A2.5,2.5 0 0 1 569.5,450.7069" fill="#F7F7F7" style="stroke:#000000;stroke-width:1.5;"/><line style="stroke:#000000;stroke-width:1.5;" x1="567" x2="618.124" y1="469.5116" y2="469.5116"/><text fill="#000000" font-family="Arial" font-size="11" font-weight="bold" lengthAdjust="spacing" textLength="38.124" x="571" y="462.9173">model</text></g><!--cluster factory--><g class="cluster" data-entity="factory" data-source-line="48" data-uid="ent0021" id="cluster_factory"><path d="M383.5,241.2969 L428.6396,241.2969 A3.75,3.75 0 0 1 431.1396,243.7969 L438.1396,260.1016 L506.5,260.1016 A2.5,2.5 0 0 1 509,262.6016 L509,321.4069 A2.5,2.5 0 0 1 506.5,323.9069 L383.5,323.9069 A2.5,2.5 0 0 1 381,321.4069 L381,243.7969 A2.5,2.5 0 0 1 383.5,241.2969" fill="#F7F7F7" style="stroke:#000000;stroke-width:1.5;"/><line style="stroke:#000000;stroke-width:1.5;" x1="381" x2="438.1396" y1="260.1016" y2="260.1016"/><text fill="#000000" font-family="Arial" font-size="11" font-weight="bold" lengthAdjust="spacing" textLength="44.1396" x="385" y="253.5073">factory</text></g><!--cluster utils--><g class="cluster" data-entity="utils" data-source-line="52" data-uid="ent0023" id="cluster_utils"><path d="M624.5,245.0969 L652.6777,245.0969 A3.75,3.75 0 0 1 655.1777,247.5969 L662.1777,263.9016 L761.5,263.9016 A2.5,2.5 0 0 1 764,266.4016 L764,424.2069 A2.5,2.5 0 0 1 761.5,426.7069 L624.5,426.7069 A2.5,2.5 0 0 1 622,424.2069 L622,247.5969 A2.5,2.5 0 0 1 624.5,245.0969" fill="#F7F7F7" style="stroke:#000000;stroke-width:1.5;"/><line style="stroke:#000000;stroke-width:1.5;" x1="622" x2="662.1777" y1="263.9016" y2="263.9016"/><text fill="#000000" font-family="Arial" font-size="11" font-weight="bold" lengthAdjust="spacing" textLength="27.1777" x="626" y="257.3073">utils</text></g><!--cluster exceptions--><g class="cluster" data-entity="exceptions" data-source-line="57" data-uid="ent0026" id="cluster_exceptions"><path d="M558.5,43.2969 L626.875,43.2969 A3.75,3.75 0 0 1 629.375,45.7969 L636.375,62.1016 L955.5,62.1016 A2.5,2.5 0 0 1 958,64.6016 L958,214.7969 A2.5,2.5 0 0 1 955.5,217.2969 L558.5,217.2969 A2.5,2.5 0 0 1 556,214.7969 L556,45.7969 A2.5,2.5 0 0 1 558.5,43.2969" fill="#F7F7F7" style="stroke:#000000;stroke-width:1.5;"/><line style="stroke:#000000;stroke-width:1.5;" x1="556" x2="636.375" y1="62.1016" y2="62.1016"/><text fill="#000000" font-family="Arial" font-size="11" font-weight="bold" lengthAdjust="spacing" textLength="67.375" x="560" y="55.5073">exceptions</text></g><!--class Main--><g class="entity" data-entity="Main" data-source-line="21" data-uid="ent0004" id="entity_Main"><rect fill="#F1F1F1" height="28" rx="2.5" ry="2.5" style="stroke:#181818;stroke-width:0.5;" width="54.2593" x="338.87" y="74.2969"/><ellipse cx="351.87" cy="88.2969" fill="#ADD1B2" rx="9" ry="9" style="stroke:#181818;stroke-width:1;"/><path d="M353.1825,92.0625 Q352.8075,92.2656 352.3856,92.3594 Q351.9794,92.4531 351.5106,92.4531 Q349.9013,92.4531 349.0419,91.3906 Q348.1825,90.3125 348.1825,88.2969 Q348.1825,86.2656 349.0419,85.2031 Q349.9013,84.125 351.5106,84.125 Q351.9794,84.125 352.3856,84.2344 Q352.8075,84.3281 353.1825,84.5156 L353.1825,86.2813 Q352.7606,85.9063 352.37,85.7344 Q351.995,85.5625 351.5888,85.5625 Q350.7294,85.5625 350.2763,86.25 Q349.8388,86.9375 349.8388,88.2969 Q349.8388,89.6563 350.2763,90.3438 Q350.7294,91.0313 351.5888,91.0313 Q351.995,91.0313 352.37,90.8594 Q352.7606,90.6875 353.1825,90.2969 L353.1825,92.0625 Z " fill="#000000"/><text fill="#000000" font-family="Arial" font-size="11" lengthAdjust="spacing" textLength="26.2593" x="363.87" y="92.105">Main</text></g><!--class CommandLineInterface--><g class="entity" data-entity="CommandLineInterface" data-source-line="25" data-uid="ent0006" id="entity_CommandLineInterface"><rect fill="#F1F1F1" height="28" rx="2.5" ry="2.5" style="stroke:#181818;stroke-width:0.5;" width="156.7075" x="359.65" y="173.2969"/><ellipse cx="372.65" cy="187.2969" fill="#ADD1B2" rx="9" ry="9" style="stroke:#181818;stroke-width:1;"/><path d="M373.9625,191.0625 Q373.5875,191.2656 373.1656,191.3594 Q372.7594,191.4531 372.2906,191.4531 Q370.6813,191.4531 369.8219,190.3906 Q368.9625,189.3125 368.9625,187.2969 Q368.9625,185.2656 369.8219,184.2031 Q370.6813,183.125 372.2906,183.125 Q372.7594,183.125 373.1656,183.2344 Q373.5875,183.3281 373.9625,183.5156 L373.9625,185.2813 Q373.5406,184.9063 373.15,184.7344 Q372.775,184.5625 372.3688,184.5625 Q371.5094,184.5625 371.0563,185.25 Q370.6188,185.9375 370.6188,187.2969 Q370.6188,188.6563 371.0563,189.3438 Q371.5094,190.0313 372.3688,190.0313 Q372.775,190.0313 373.15,189.8594 Q373.5406,189.6875 373.9625,189.2969 L373.9625,191.0625 Z " fill="#000000"/><text fill="#000000" font-family="Arial" font-size="11" lengthAdjust="spacing" textLength="128.7075" x="384.65" y="191.105">CommandLineInterface</text></g><!--class LibraryService--><g class="entity" data-entity="LibraryService" data-source-line="29" data-uid="ent0008" id="entity_LibraryService"><rect fill="#F1F1F1" height="35.6094" rx="2.5" ry="2.5" style="stroke:#181818;stroke-width:0.5;" width="107.1162" x="233.44" y="272.2969"/><ellipse cx="246.44" cy="290.1016" fill="#ADD1B2" rx="9" ry="9" style="stroke:#181818;stroke-width:1;"/><path d="M247.7525,293.8672 Q247.3775,294.0703 246.9556,294.1641 Q246.5494,294.2578 246.0806,294.2578 Q244.4713,294.2578 243.6119,293.1953 Q242.7525,292.1172 242.7525,290.1016 Q242.7525,288.0703 243.6119,287.0078 Q244.4713,285.9297 246.0806,285.9297 Q246.5494,285.9297 246.9556,286.0391 Q247.3775,286.1328 247.7525,286.3203 L247.7525,288.0859 Q247.3306,287.7109 246.94,287.5391 Q246.565,287.3672 246.1588,287.3672 Q245.2994,287.3672 244.8463,288.0547 Q244.4088,288.7422 244.4088,290.1016 Q244.4088,291.4609 244.8463,292.1484 Q245.2994,292.8359 246.1588,292.8359 Q246.565,292.8359 246.94,292.6641 Q247.3306,292.4922 247.7525,292.1016 L247.7525,293.8672 Z " fill="#000000"/><text fill="#000000" font-family="Arial" font-size="11" font-style="italic" lengthAdjust="spacing" textLength="65.291" x="265.3526" y="287.5073">&#171;Singleton&#187;</text><text fill="#000000" font-family="Arial" font-size="11" lengthAdjust="spacing" textLength="79.1162" x="258.44" y="300.312">LibraryService</text></g><!--class SortStrategy--><g class="entity" data-entity="SortStrategy" data-source-line="30" data-uid="ent0009" id="entity_SortStrategy"><rect fill="#F1F1F1" height="35.6094" rx="2.5" ry="2.5" style="stroke:#181818;stroke-width:0.5;" width="97.6792" x="218.16" y="375.0969"/><ellipse cx="231.16" cy="392.9016" fill="#B4A7E5" rx="9" ry="9" style="stroke:#181818;stroke-width:1;"/><path d="M228.0819,390.2766 L228.0819,388.8859 L232.8631,388.8859 L232.8631,390.2766 L231.2694,390.2766 L231.2694,395.5109 L232.8631,395.5109 L232.8631,396.9016 L228.0819,396.9016 L228.0819,395.5109 L229.6756,395.5109 L229.6756,390.2766 L228.0819,390.2766 Z " fill="#000000"/><text fill="#000000" font-family="Arial" font-size="11" font-style="italic" lengthAdjust="spacing" textLength="60.5913" x="247.7039" y="390.3073">&#171;Strategy&#187;</text><text fill="#000000" font-family="Arial" font-size="11" font-style="italic" lengthAdjust="spacing" textLength="69.6792" x="243.16" y="403.112">SortStrategy</text></g><!--class SortByTitleStrategy--><g class="entity" data-entity="SortByTitleStrategy" data-source-line="31" data-uid="ent0010" id="entity_SortByTitleStrategy"><rect fill="#F1F1F1" height="28" rx="2.5" ry="2.5" style="stroke:#181818;stroke-width:0.5;" width="135.6475" x="22.18" y="481.7069"/><ellipse cx="35.18" cy="495.7069" fill="#ADD1B2" rx="9" ry="9" style="stroke:#181818;stroke-width:1;"/><path d="M36.4925,499.4725 Q36.1175,499.6756 35.6956,499.7694 Q35.2894,499.8631 34.8206,499.8631 Q33.2113,499.8631 32.3519,498.8006 Q31.4925,497.7225 31.4925,495.7069 Q31.4925,493.6756 32.3519,492.6131 Q33.2113,491.535 34.8206,491.535 Q35.2894,491.535 35.6956,491.6444 Q36.1175,491.7381 36.4925,491.9256 L36.4925,493.6912 Q36.0706,493.3162 35.68,493.1444 Q35.305,492.9725 34.8988,492.9725 Q34.0394,492.9725 33.5863,493.66 Q33.1488,494.3475 33.1488,495.7069 Q33.1488,497.0662 33.5863,497.7537 Q34.0394,498.4412 34.8988,498.4412 Q35.305,498.4412 35.68,498.2694 Q36.0706,498.0975 36.4925,497.7069 L36.4925,499.4725 Z " fill="#000000"/><text fill="#000000" font-family="Arial" font-size="11" lengthAdjust="spacing" textLength="107.6475" x="47.18" y="499.515">SortByTitleStrategy</text></g><!--class SortByAuthorStrategy--><g class="entity" data-entity="SortByAuthorStrategy" data-source-line="32" data-uid="ent0011" id="entity_SortByAuthorStrategy"><rect fill="#F1F1F1" height="28" rx="2.5" ry="2.5" style="stroke:#181818;stroke-width:0.5;" width="148.769" x="192.62" y="481.7069"/><ellipse cx="205.62" cy="495.7069" fill="#ADD1B2" rx="9" ry="9" style="stroke:#181818;stroke-width:1;"/><path d="M206.9325,499.4725 Q206.5575,499.6756 206.1356,499.7694 Q205.7294,499.8631 205.2606,499.8631 Q203.6513,499.8631 202.7919,498.8006 Q201.9325,497.7225 201.9325,495.7069 Q201.9325,493.6756 202.7919,492.6131 Q203.6513,491.535 205.2606,491.535 Q205.7294,491.535 206.1356,491.6444 Q206.5575,491.7381 206.9325,491.9256 L206.9325,493.6912 Q206.5106,493.3162 206.12,493.1444 Q205.745,492.9725 205.3388,492.9725 Q204.4794,492.9725 204.0263,493.66 Q203.5888,494.3475 203.5888,495.7069 Q203.5888,497.0662 204.0263,497.7537 Q204.4794,498.4412 205.3388,498.4412 Q205.745,498.4412 206.12,498.2694 Q206.5106,498.0975 206.9325,497.7069 L206.9325,499.4725 Z " fill="#000000"/><text fill="#000000" font-family="Arial" font-size="11" lengthAdjust="spacing" textLength="120.769" x="217.62" y="499.515">SortByAuthorStrategy</text></g><!--class StorageService--><g class="entity" data-entity="StorageService" data-source-line="36" data-uid="ent0013" id="entity_StorageService"><rect fill="#F1F1F1" height="28" rx="2.5" ry="2.5" style="stroke:#181818;stroke-width:0.5;" width="111.6924" x="401.15" y="378.9069"/><ellipse cx="414.15" cy="392.9069" fill="#B4A7E5" rx="9" ry="9" style="stroke:#181818;stroke-width:1;"/><path d="M411.0719,390.2819 L411.0719,388.8912 L415.8531,388.8912 L415.8531,390.2819 L414.2594,390.2819 L414.2594,395.5162 L415.8531,395.5162 L415.8531,396.9069 L411.0719,396.9069 L411.0719,395.5162 L412.6656,395.5162 L412.6656,390.2819 L411.0719,390.2819 Z " fill="#000000"/><text fill="#000000" font-family="Arial" font-size="11" font-style="italic" lengthAdjust="spacing" textLength="83.6924" x="426.15" y="396.715">StorageService</text></g><!--class FileStorageService--><g class="entity" data-entity="FileStorageService" data-source-line="37" data-uid="ent0014" id="entity_FileStorageService"><rect fill="#F1F1F1" height="28" rx="2.5" ry="2.5" style="stroke:#181818;stroke-width:0.5;" width="130.8994" x="396.55" y="481.7069"/><ellipse cx="409.55" cy="495.7069" fill="#ADD1B2" rx="9" ry="9" style="stroke:#181818;stroke-width:1;"/><path d="M410.8625,499.4725 Q410.4875,499.6756 410.0656,499.7694 Q409.6594,499.8631 409.1906,499.8631 Q407.5813,499.8631 406.7219,498.8006 Q405.8625,497.7225 405.8625,495.7069 Q405.8625,493.6756 406.7219,492.6131 Q407.5813,491.535 409.1906,491.535 Q409.6594,491.535 410.0656,491.6444 Q410.4875,491.7381 410.8625,491.9256 L410.8625,493.6912 Q410.4406,493.3162 410.05,493.1444 Q409.675,492.9725 409.2688,492.9725 Q408.4094,492.9725 407.9563,493.66 Q407.5188,494.3475 407.5188,495.7069 Q407.5188,497.0662 407.9563,497.7537 Q408.4094,498.4412 409.2688,498.4412 Q409.675,498.4412 410.05,498.2694 Q410.4406,498.0975 410.8625,497.7069 L410.8625,499.4725 Z " fill="#000000"/><text fill="#000000" font-family="Arial" font-size="11" lengthAdjust="spacing" textLength="102.8994" x="421.55" y="499.515">FileStorageService</text></g><!--class LibraryItem--><g class="entity" data-entity="LibraryItem" data-source-line="41" data-uid="ent0016" id="entity_LibraryItem"><rect fill="#F1F1F1" height="28" rx="2.5" ry="2.5" style="stroke:#181818;stroke-width:0.5;" width="91.5024" x="583.25" y="481.7069"/><ellipse cx="596.25" cy="495.7069" fill="#B4A7E5" rx="9" ry="9" style="stroke:#181818;stroke-width:1;"/><path d="M593.1719,493.0819 L593.1719,491.6912 L597.9531,491.6912 L597.9531,493.0819 L596.3594,493.0819 L596.3594,498.3162 L597.9531,498.3162 L597.9531,499.7069 L593.1719,499.7069 L593.1719,498.3162 L594.7656,498.3162 L594.7656,493.0819 L593.1719,493.0819 Z " fill="#000000"/><text fill="#000000" font-family="Arial" font-size="11" font-style="italic" lengthAdjust="spacing" textLength="63.5024" x="608.25" y="499.515">LibraryItem</text></g><!--class Book--><g class="entity" data-entity="Book" data-source-line="42" data-uid="ent0017" id="entity_Book"><rect fill="#F1F1F1" height="28" rx="2.5" ry="2.5" style="stroke:#181818;stroke-width:0.5;" width="55.3765" x="583.31" y="569.7069"/><ellipse cx="596.31" cy="583.7069" fill="#ADD1B2" rx="9" ry="9" style="stroke:#181818;stroke-width:1;"/><path d="M597.6225,587.4725 Q597.2475,587.6756 596.8256,587.7694 Q596.4194,587.8631 595.9506,587.8631 Q594.3413,587.8631 593.4819,586.8006 Q592.6225,585.7225 592.6225,583.7069 Q592.6225,581.6756 593.4819,580.6131 Q594.3413,579.535 595.9506,579.535 Q596.4194,579.535 596.8256,579.6444 Q597.2475,579.7381 597.6225,579.9256 L597.6225,581.6913 Q597.2006,581.3163 596.81,581.1444 Q596.435,580.9725 596.0288,580.9725 Q595.1694,580.9725 594.7163,581.66 Q594.2788,582.3475 594.2788,583.7069 Q594.2788,585.0663 594.7163,585.7538 Q595.1694,586.4413 596.0288,586.4413 Q596.435,586.4413 596.81,586.2694 Q597.2006,586.0975 597.6225,585.7069 L597.6225,587.4725 Z " fill="#000000"/><text fill="#000000" font-family="Arial" font-size="11" lengthAdjust="spacing" textLength="27.3765" x="608.31" y="587.515">Book</text></g><!--class BookCollection--><g class="entity" data-entity="BookCollection" data-source-line="43" data-uid="ent0018" id="entity_BookCollection"><rect fill="#F1F1F1" height="28" rx="2.5" ry="2.5" style="stroke:#181818;stroke-width:0.5;" width="109.7856" x="674.11" y="569.7069"/><ellipse cx="687.11" cy="583.7069" fill="#ADD1B2" rx="9" ry="9" style="stroke:#181818;stroke-width:1;"/><path d="M688.4225,587.4725 Q688.0475,587.6756 687.6256,587.7694 Q687.2194,587.8631 686.7506,587.8631 Q685.1413,587.8631 684.2819,586.8006 Q683.4225,585.7225 683.4225,583.7069 Q683.4225,581.6756 684.2819,580.6131 Q685.1413,579.535 686.7506,579.535 Q687.2194,579.535 687.6256,579.6444 Q688.0475,579.7381 688.4225,579.9256 L688.4225,581.6913 Q688.0006,581.3163 687.61,581.1444 Q687.235,580.9725 686.8288,580.9725 Q685.9694,580.9725 685.5163,581.66 Q685.0788,582.3475 685.0788,583.7069 Q685.0788,585.0663 685.5163,585.7538 Q685.9694,586.4413 686.8288,586.4413 Q687.235,586.4413 687.61,586.2694 Q688.0006,586.0975 688.4225,585.7069 L688.4225,587.4725 Z " fill="#000000"/><text fill="#000000" font-family="Arial" font-size="11" lengthAdjust="spacing" textLength="81.7856" x="699.11" y="587.515">BookCollection</text></g><!--class BookBuilder--><g class="entity" data-entity="BookBuilder" data-source-line="44" data-uid="ent0019" id="entity_BookBuilder"><rect fill="#F1F1F1" height="35.6094" rx="2.5" ry="2.5" style="stroke:#181818;stroke-width:0.5;" width="94.2793" x="582.86" y="657.7069"/><ellipse cx="595.86" cy="675.5116" fill="#ADD1B2" rx="9" ry="9" style="stroke:#181818;stroke-width:1;"/><path d="M597.1725,679.2772 Q596.7975,679.4803 596.3756,679.5741 Q595.9694,679.6678 595.5006,679.6678 Q593.8913,679.6678 593.0319,678.6053 Q592.1725,677.5272 592.1725,675.5116 Q592.1725,673.4803 593.0319,672.4178 Q593.8913,671.3397 595.5006,671.3397 Q595.9694,671.3397 596.3756,671.4491 Q596.7975,671.5428 597.1725,671.7303 L597.1725,673.4959 Q596.7506,673.1209 596.36,672.9491 Q595.985,672.7772 595.5788,672.7772 Q594.7194,672.7772 594.2663,673.4647 Q593.8288,674.1522 593.8288,675.5116 Q593.8288,676.8709 594.2663,677.5584 Q594.7194,678.2459 595.5788,678.2459 Q595.985,678.2459 596.36,678.0741 Q596.7506,677.9022 597.1725,677.5116 L597.1725,679.2772 Z " fill="#000000"/><text fill="#000000" font-family="Arial" font-size="11" font-style="italic" lengthAdjust="spacing" textLength="52.3628" x="614.8183" y="672.9173">&#171;Builder&#187;</text><text fill="#000000" font-family="Arial" font-size="11" lengthAdjust="spacing" textLength="66.2793" x="607.86" y="685.722">BookBuilder</text></g><!--class LogLevel--><g class="entity" data-entity="LogLevel" data-source-line="45" data-uid="ent0020" id="entity_LogLevel"><rect fill="#F1F1F1" height="28" rx="2.5" ry="2.5" style="stroke:#181818;stroke-width:0.5;" width="77.0703" x="709.46" y="481.7069"/><ellipse cx="722.46" cy="495.7069" fill="#EB937F" rx="9" ry="9" style="stroke:#181818;stroke-width:1;"/><path d="M724.3506,499.7069 L719.3663,499.7069 L719.3663,491.6912 L724.3506,491.6912 L724.3506,493.0819 L720.9444,493.0819 L720.9444,494.8162 L724.0381,494.8162 L724.0381,496.2069 L720.9444,496.2069 L720.9444,498.3162 L724.3506,498.3162 L724.3506,499.7069 Z " fill="#000000"/><text fill="#000000" font-family="Arial" font-size="11" lengthAdjust="spacing" textLength="49.0703" x="734.46" y="499.515">LogLevel</text></g><!--class BookFactory--><g class="entity" data-entity="BookFactory" data-source-line="49" data-uid="ent0022" id="entity_BookFactory"><rect fill="#F1F1F1" height="35.6094" rx="2.5" ry="2.5" style="stroke:#181818;stroke-width:0.5;" width="96.5674" x="396.72" y="272.2969"/><ellipse cx="409.72" cy="290.1016" fill="#ADD1B2" rx="9" ry="9" style="stroke:#181818;stroke-width:1;"/><path d="M411.0325,293.8672 Q410.6575,294.0703 410.2356,294.1641 Q409.8294,294.2578 409.3606,294.2578 Q407.7513,294.2578 406.8919,293.1953 Q406.0325,292.1172 406.0325,290.1016 Q406.0325,288.0703 406.8919,287.0078 Q407.7513,285.9297 409.3606,285.9297 Q409.8294,285.9297 410.2356,286.0391 Q410.6575,286.1328 411.0325,286.3203 L411.0325,288.0859 Q410.6106,287.7109 410.22,287.5391 Q409.845,287.3672 409.4388,287.3672 Q408.5794,287.3672 408.1263,288.0547 Q407.6888,288.7422 407.6888,290.1016 Q407.6888,291.4609 408.1263,292.1484 Q408.5794,292.8359 409.4388,292.8359 Q409.845,292.8359 410.22,292.6641 Q410.6106,292.4922 411.0325,292.1016 L411.0325,293.8672 Z " fill="#000000"/><text fill="#000000" font-family="Arial" font-size="11" font-style="italic" lengthAdjust="spacing" textLength="54.6509" x="428.6783" y="287.5073">&#171;Factory&#187;</text><text fill="#000000" font-family="Arial" font-size="11" lengthAdjust="spacing" textLength="68.5674" x="421.72" y="300.312">BookFactory</text></g><!--class ConsoleLogger--><g class="entity" data-entity="ConsoleLogger" data-source-line="53" data-uid="ent0024" id="entity_ConsoleLogger"><rect fill="#F1F1F1" height="35.6094" rx="2.5" ry="2.5" style="stroke:#181818;stroke-width:0.5;" width="109.7803" x="638.11" y="375.0969"/><ellipse cx="651.11" cy="392.9016" fill="#ADD1B2" rx="9" ry="9" style="stroke:#181818;stroke-width:1;"/><path d="M652.4225,396.6672 Q652.0475,396.8703 651.6256,396.9641 Q651.2194,397.0578 650.7506,397.0578 Q649.1413,397.0578 648.2819,395.9953 Q647.4225,394.9172 647.4225,392.9016 Q647.4225,390.8703 648.2819,389.8078 Q649.1413,388.7297 650.7506,388.7297 Q651.2194,388.7297 651.6256,388.8391 Q652.0475,388.9328 652.4225,389.1203 L652.4225,390.8859 Q652.0006,390.5109 651.61,390.3391 Q651.235,390.1672 650.8288,390.1672 Q649.9694,390.1672 649.5163,390.8547 Q649.0788,391.5422 649.0788,392.9016 Q649.0788,394.2609 649.5163,394.9484 Q649.9694,395.6359 650.8288,395.6359 Q651.235,395.6359 651.61,395.4641 Q652.0006,395.2922 652.4225,394.9016 L652.4225,396.6672 Z " fill="#000000"/><text fill="#000000" font-family="Arial" font-size="11" font-style="italic" lengthAdjust="spacing" textLength="65.291" x="671.3546" y="390.3073">&#171;Singleton&#187;</text><text fill="#000000" font-family="Arial" font-size="11" lengthAdjust="spacing" textLength="81.7803" x="663.11" y="403.112">ConsoleLogger</text></g><!--class InputValidator--><g class="entity" data-entity="InputValidator" data-source-line="54" data-uid="ent0025" id="entity_InputValidator"><rect fill="#F1F1F1" height="28" rx="2.5" ry="2.5" style="stroke:#181818;stroke-width:0.5;" width="106.1494" x="638.93" y="276.0969"/><ellipse cx="651.93" cy="290.0969" fill="#ADD1B2" rx="9" ry="9" style="stroke:#181818;stroke-width:1;"/><path d="M653.2425,293.8625 Q652.8675,294.0656 652.4456,294.1594 Q652.0394,294.2531 651.5706,294.2531 Q649.9613,294.2531 649.1019,293.1906 Q648.2425,292.1125 648.2425,290.0969 Q648.2425,288.0656 649.1019,287.0031 Q649.9613,285.925 651.5706,285.925 Q652.0394,285.925 652.4456,286.0344 Q652.8675,286.1281 653.2425,286.3156 L653.2425,288.0812 Q652.8206,287.7062 652.43,287.5344 Q652.055,287.3625 651.6488,287.3625 Q650.7894,287.3625 650.3363,288.05 Q649.8988,288.7375 649.8988,290.0969 Q649.8988,291.4562 650.3363,292.1437 Q650.7894,292.8312 651.6488,292.8312 Q652.055,292.8312 652.43,292.6594 Q652.8206,292.4875 653.2425,292.0969 L653.2425,293.8625 Z " fill="#000000"/><text fill="#000000" font-family="Arial" font-size="11" lengthAdjust="spacing" textLength="78.1494" x="663.93" y="293.905">InputValidator</text></g><!--class LibraryException--><g class="entity" data-entity="LibraryException" data-source-line="58" data-uid="ent0027" id="entity_LibraryException"><rect fill="#F1F1F1" height="28" rx="2.5" ry="2.5" style="stroke:#181818;stroke-width:0.5;" width="120.791" x="698.6" y="74.2969"/><ellipse cx="711.6" cy="88.2969" fill="#ADD1B2" rx="9" ry="9" style="stroke:#181818;stroke-width:1;"/><path d="M712.9125,92.0625 Q712.5375,92.2656 712.1156,92.3594 Q711.7094,92.4531 711.2406,92.4531 Q709.6313,92.4531 708.7719,91.3906 Q707.9125,90.3125 707.9125,88.2969 Q707.9125,86.2656 708.7719,85.2031 Q709.6313,84.125 711.2406,84.125 Q711.7094,84.125 712.1156,84.2344 Q712.5375,84.3281 712.9125,84.5156 L712.9125,86.2813 Q712.4906,85.9063 712.1,85.7344 Q711.725,85.5625 711.3188,85.5625 Q710.4594,85.5625 710.0063,86.25 Q709.5688,86.9375 709.5688,88.2969 Q709.5688,89.6563 710.0063,90.3438 Q710.4594,91.0313 711.3188,91.0313 Q711.725,91.0313 712.1,90.8594 Q712.4906,90.6875 712.9125,90.2969 L712.9125,92.0625 Z " fill="#000000"/><text fill="#000000" font-family="Arial" font-size="11" lengthAdjust="spacing" textLength="92.791" x="723.6" y="92.105">LibraryException</text></g><!--class InvalidBookDataException--><g class="entity" data-entity="InvalidBookDataException" data-source-line="59" data-uid="ent0028" id="entity_InvalidBookDataException"><rect fill="#F1F1F1" height="28" rx="2.5" ry="2.5" style="stroke:#181818;stroke-width:0.5;" width="172.5308" x="571.73" y="173.2969"/><ellipse cx="584.73" cy="187.2969" fill="#ADD1B2" rx="9" ry="9" style="stroke:#181818;stroke-width:1;"/><path d="M586.0425,191.0625 Q585.6675,191.2656 585.2456,191.3594 Q584.8394,191.4531 584.3706,191.4531 Q582.7613,191.4531 581.9019,190.3906 Q581.0425,189.3125 581.0425,187.2969 Q581.0425,185.2656 581.9019,184.2031 Q582.7613,183.125 584.3706,183.125 Q584.8394,183.125 585.2456,183.2344 Q585.6675,183.3281 586.0425,183.5156 L586.0425,185.2813 Q585.6206,184.9063 585.23,184.7344 Q584.855,184.5625 584.4488,184.5625 Q583.5894,184.5625 583.1363,185.25 Q582.6988,185.9375 582.6988,187.2969 Q582.6988,188.6563 583.1363,189.3438 Q583.5894,190.0313 584.4488,190.0313 Q584.855,190.0313 585.23,189.8594 Q585.6206,189.6875 586.0425,189.2969 L586.0425,191.0625 Z " fill="#000000"/><text fill="#000000" font-family="Arial" font-size="11" lengthAdjust="spacing" textLength="144.5308" x="596.73" y="191.105">InvalidBookDataException</text></g><!--class BookNotFoundException--><g class="entity" data-entity="BookNotFoundException" data-source-line="60" data-uid="ent0029" id="entity_BookNotFoundException"><rect fill="#F1F1F1" height="28" rx="2.5" ry="2.5" style="stroke:#181818;stroke-width:0.5;" width="162.9595" x="779.52" y="173.2969"/><ellipse cx="792.52" cy="187.2969" fill="#ADD1B2" rx="9" ry="9" style="stroke:#181818;stroke-width:1;"/><path d="M793.8325,191.0625 Q793.4575,191.2656 793.0356,191.3594 Q792.6294,191.4531 792.1606,191.4531 Q790.5513,191.4531 789.6919,190.3906 Q788.8325,189.3125 788.8325,187.2969 Q788.8325,185.2656 789.6919,184.2031 Q790.5513,183.125 792.1606,183.125 Q792.6294,183.125 793.0356,183.2344 Q793.4575,183.3281 793.8325,183.5156 L793.8325,185.2813 Q793.4106,184.9063 793.02,184.7344 Q792.645,184.5625 792.2388,184.5625 Q791.3794,184.5625 790.9263,185.25 Q790.4888,185.9375 790.4888,187.2969 Q790.4888,188.6563 790.9263,189.3438 Q791.3794,190.0313 792.2388,190.0313 Q792.645,190.0313 793.02,189.8594 Q793.4106,189.6875 793.8325,189.2969 L793.8325,191.0625 Z " fill="#000000"/><text fill="#000000" font-family="Arial" font-size="11" lengthAdjust="spacing" textLength="134.9595" x="804.52" y="191.105">BookNotFoundException</text></g><g class="entity" data-entity="Legend" data-source-line="14" data-uid="ent0002" id="entity_Legend"><path d="M87.71,64.0869 L87.71,112.5009 L304.2823,112.5009 L304.2823,74.0869 L294.2823,64.0869 L87.71,64.0869" fill="#FEFFDD" style="stroke:#181818;stroke-width:0.5;"/><path d="M294.2823,64.0869 L294.2823,74.0869 L304.2823,74.0869 L294.2823,64.0869" fill="#FEFFDD" style="stroke:#181818;stroke-width:1;"/><text fill="#000000" font-family="Arial" font-size="11" font-weight="bold" lengthAdjust="spacing" textLength="147.3828" x="93.71" y="79.2973">Legenda delle Relazioni</text><text fill="#000000" font-family="Arial" font-size="11" lengthAdjust="spacing" textLength="195.5723" x="93.71" y="92.102">&lt;|-- : Ereditariet&#224;/Implementazione</text><text fill="#000000" font-family="Arial" font-size="11" lengthAdjust="spacing" textLength="96.8354" x="93.71" y="104.9067">--&gt;  : Dipendenza</text></g><!--reverse link LibraryException to InvalidBookDataException--><g class="link" data-entity-1="LibraryException" data-entity-2="InvalidBookDataException" data-source-line="65" data-uid="lnk30" id="link_LibraryException_InvalidBookDataException"><path codeLine="65" d="M721.43,120.4769 C721.43,139.1869 721.43,153.9569 721.43,172.8169" fill="none" id="LibraryException-backto-InvalidBookDataException" style="stroke:#181818;stroke-width:1;"/><polygon fill="none" points="721.43,102.4769,715.43,120.4769,727.43,120.4769,721.43,102.4769" style="stroke:#181818;stroke-width:1;"/></g><!--reverse link LibraryException to BookNotFoundException--><g class="link" data-entity-1="LibraryException" data-entity-2="BookNotFoundException" data-source-line="66" data-uid="lnk31" id="link_LibraryException_BookNotFoundException"><path codeLine="66" d="M799.46,120.4769 C799.46,139.1869 799.46,153.9569 799.46,172.8169" fill="none" id="LibraryException-backto-BookNotFoundException" style="stroke:#181818;stroke-width:1;"/><polygon fill="none" points="799.46,102.4769,793.46,120.4769,805.46,120.4769,799.46,102.4769" style="stroke:#181818;stroke-width:1;"/></g><!--reverse link LibraryItem to Book--><g class="link" data-entity-1="LibraryItem" data-entity-2="Book" data-source-line="68" data-uid="lnk32" id="link_LibraryItem_Book"><path codeLine="68" d="M611,527.8469 C611,544.1669 611,552.8769 611,569.3069" fill="none" id="LibraryItem-backto-Book" style="stroke:#181818;stroke-width:1;"/><polygon fill="none" points="611,509.8469,605,527.8469,617,527.8469,611,509.8469" style="stroke:#181818;stroke-width:1;"/></g><!--reverse link LibraryItem to BookCollection--><g class="link" data-entity-1="LibraryItem" data-entity-2="BookCollection" data-source-line="69" data-uid="lnk33" id="link_LibraryItem_BookCollection"><path codeLine="69" d="M693.2,496.3169 C693.2,496.3169 692.11,544.4569 692.11,569.2769" fill="none" id="LibraryItem-backto-BookCollection" style="stroke:#181818;stroke-width:1;"/><polygon fill="none" points="675.2,496.3169,693.2,502.3169,693.2,490.3169,675.2,496.3169" style="stroke:#181818;stroke-width:1;"/></g><!--link BookCollection to LibraryItem--><g class="link" data-entity-1="BookCollection" data-entity-2="LibraryItem" data-source-line="87" data-uid="lnk44" id="link_BookCollection_LibraryItem"><path codeLine="87" d="M673.97,584.3169 C663.85,584.3169 656.4,584.3169 656.4,584.3169 C656.4,584.3169 656.4,540.9969 656.4,515.9469" fill="none" id="BookCollection-to-LibraryItem" style="stroke:#181818;stroke-width:1;"/><polygon fill="#181818" points="656.4,509.9469,652.4,518.9469,656.4,514.9469,660.4,518.9469,656.4,509.9469" style="stroke:#181818;stroke-width:1;"/></g><!--reverse link StorageService to FileStorageService--><g class="link" data-entity-1="StorageService" data-entity-2="FileStorageService" data-source-line="71" data-uid="lnk34" id="link_StorageService_FileStorageService"><path codeLine="71" d="M457,425.1969 C457,444.8369 457,461.9569 457,481.5369" fill="none" id="StorageService-backto-FileStorageService" style="stroke:#181818;stroke-width:1;"/><polygon fill="none" points="457,407.1969,451,425.1969,463,425.1969,457,407.1969" style="stroke:#181818;stroke-width:1;"/></g><!--reverse link SortStrategy to SortByTitleStrategy--><g class="link" data-entity-1="SortStrategy" data-entity-2="SortByTitleStrategy" data-source-line="72" data-uid="lnk35" id="link_SortStrategy_SortByTitleStrategy"><path codeLine="72" d="M199.77,393.3169 C157.98,393.3169 122.77,393.3169 122.77,393.3169 C122.77,393.3169 122.77,453.3369 122.77,481.4669" fill="none" id="SortStrategy-backto-SortByTitleStrategy" style="stroke:#181818;stroke-width:1;"/><polygon fill="none" points="217.77,393.3169,199.77,387.3169,199.77,399.3169,217.77,393.3169" style="stroke:#181818;stroke-width:1;"/></g><!--reverse link SortStrategy to SortByAuthorStrategy--><g class="link" data-entity-1="SortStrategy" data-entity-2="SortByAuthorStrategy" data-source-line="73" data-uid="lnk36" id="link_SortStrategy_SortByAuthorStrategy"><path codeLine="73" d="M267,428.8069 C267,448.8269 267,462.8569 267,481.3169" fill="none" id="SortStrategy-backto-SortByAuthorStrategy" style="stroke:#181818;stroke-width:1;"/><polygon fill="none" points="267,410.8069,261,428.8069,273,428.8069,267,410.8069" style="stroke:#181818;stroke-width:1;"/></g><!--link Main to CommandLineInterface--><g class="link" data-entity-1="Main" data-entity-2="CommandLineInterface" data-source-line="77" data-uid="lnk37" id="link_Main_CommandLineInterface"><path codeLine="77" d="M376.39,102.4769 C376.39,121.1869 376.39,147.9569 376.39,166.8169" fill="none" id="Main-to-CommandLineInterface" style="stroke:#181818;stroke-width:1;"/><polygon fill="#181818" points="376.39,172.8169,380.39,163.8169,376.39,167.8169,372.39,163.8169,376.39,172.8169" style="stroke:#181818;stroke-width:1;"/></g><!--link Main to LibraryService--><g class="link" data-entity-1="Main" data-entity-2="LibraryService" data-source-line="78" data-uid="lnk38" id="link_Main_LibraryService"><path codeLine="78" d="M350.52,102.4969 C350.52,148.4869 350.52,290.3169 350.52,290.3169 C350.52,290.3169 352.67,290.3169 346.87,290.3169" fill="none" id="Main-to-LibraryService" style="stroke:#181818;stroke-width:1;"/><polygon fill="#181818" points="340.87,290.3169,349.87,294.3169,345.87,290.3169,349.87,286.3169,340.87,290.3169" style="stroke:#181818;stroke-width:1;"/></g><!--link CommandLineInterface to LibraryService--><g class="link" data-entity-1="CommandLineInterface" data-entity-2="LibraryService" data-source-line="80" data-uid="lnk39" id="link_CommandLineInterface_LibraryService"><path codeLine="80" d="M359.38,187.3169 C338.47,187.3169 321.58,187.3169 321.58,187.3169 C321.58,187.3169 321.58,236.7469 321.58,266.1969" fill="none" id="CommandLineInterface-to-LibraryService" style="stroke:#181818;stroke-width:1;"/><polygon fill="#181818" points="321.58,272.1969,325.58,263.1969,321.58,267.1969,317.58,263.1969,321.58,272.1969" style="stroke:#181818;stroke-width:1;"/></g><!--link CommandLineInterface to BookFactory--><g class="link" data-entity-1="CommandLineInterface" data-entity-2="BookFactory" data-source-line="81" data-uid="lnk40" id="link_CommandLineInterface_BookFactory"><path codeLine="81" d="M445,201.5869 C445,220.0169 445,246.0669 445,266.1269" fill="none" id="CommandLineInterface-to-BookFactory" style="stroke:#181818;stroke-width:1;"/><polygon fill="#181818" points="445,272.1269,449,263.1269,445,267.1269,441,263.1269,445,272.1269" style="stroke:#181818;stroke-width:1;"/></g><!--link CommandLineInterface to InputValidator--><g class="link" data-entity-1="CommandLineInterface" data-entity-2="InputValidator" data-source-line="82" data-uid="lnk41" id="link_CommandLineInterface_InputValidator"><path codeLine="82" d="M503.06,201.6169 C503.06,229.9269 503.06,290.3169 503.06,290.3169 C503.06,290.3169 576.75,290.3169 632.62,290.3169" fill="none" id="CommandLineInterface-to-InputValidator" style="stroke:#181818;stroke-width:1;"/><polygon fill="#181818" points="638.62,290.3169,629.62,286.3169,633.62,290.3169,629.62,294.3169,638.62,290.3169" style="stroke:#181818;stroke-width:1;"/></g><!--link LibraryService to StorageService--><g class="link" data-entity-1="LibraryService" data-entity-2="StorageService" data-source-line="84" data-uid="lnk42" id="link_LibraryService_StorageService"><path codeLine="84" d="M328.2,308.0769 C328.2,337.6469 328.2,393.3169 328.2,393.3169 C328.2,393.3169 360.17,393.3169 394.88,393.3169" fill="none" id="LibraryService-to-StorageService" style="stroke:#181818;stroke-width:1;"/><polygon fill="#181818" points="400.88,393.3169,391.88,389.3169,395.88,393.3169,391.88,397.3169,400.88,393.3169" style="stroke:#181818;stroke-width:1;"/></g><!--link LibraryService to SortStrategy--><g class="link" data-entity-1="LibraryService" data-entity-2="SortStrategy" data-source-line="85" data-uid="lnk43" id="link_LibraryService_SortStrategy"><path codeLine="85" d="M274.64,308.0069 C274.64,326.7569 274.64,350.0469 274.64,368.8569" fill="none" id="LibraryService-to-SortStrategy" style="stroke:#181818;stroke-width:1;"/><polygon fill="#181818" points="274.64,374.8569,278.64,365.8569,274.64,369.8569,270.64,365.8569,274.64,374.8569" style="stroke:#181818;stroke-width:1;"/></g><!--link Book to BookBuilder--><g class="link" data-entity-1="Book" data-entity-2="BookBuilder" data-source-line="88" data-uid="lnk45" id="link_Book_BookBuilder"><path codeLine="88" d="M611,598.0569 C611,614.0869 611,634.0869 611,651.4869" fill="none" id="Book-to-BookBuilder" style="stroke:#181818;stroke-width:1;"/><polygon fill="#181818" points="611,657.4869,615,648.4869,611,652.4869,607,648.4869,611,657.4869" style="stroke:#181818;stroke-width:1;"/></g><!--link FileStorageService to Book--><g class="link" data-entity-1="FileStorageService" data-entity-2="Book" data-source-line="90" data-uid="lnk46" id="link_FileStorageService_Book"><path codeLine="90" d="M462,509.9469 C462,534.9969 462,584.3169 462,584.3169 C462,584.3169 533.81,584.3169 576.97,584.3169" fill="none" id="FileStorageService-to-Book" style="stroke:#181818;stroke-width:1;"/><polygon fill="#181818" points="582.97,584.3169,573.97,580.3169,577.97,584.3169,573.97,588.3169,582.97,584.3169" style="stroke:#181818;stroke-width:1;"/></g><!--link ConsoleLogger to LogLevel--><g class="link" data-entity-1="ConsoleLogger" data-entity-2="LogLevel" data-source-line="91" data-uid="lnk47" id="link_ConsoleLogger_LogLevel"><path codeLine="91" d="M728.68,410.8069 C728.68,430.8269 728.68,456.8569 728.68,475.3169" fill="none" id="ConsoleLogger-to-LogLevel" style="stroke:#181818;stroke-width:1;"/><polygon fill="#181818" points="728.68,481.3169,732.68,472.3169,728.68,476.3169,724.68,472.3169,728.68,481.3169" style="stroke:#181818;stroke-width:1;"/></g><!--link InputValidator to ConsoleLogger--><g class="link" data-entity-1="InputValidator" data-entity-2="ConsoleLogger" data-source-line="92" data-uid="lnk48" id="link_InputValidator_ConsoleLogger"><path codeLine="92" d="M692,304.3969 C692,322.8169 692,348.8669 692,368.9269" fill="none" id="InputValidator-to-ConsoleLogger" style="stroke:#181818;stroke-width:1;"/><polygon fill="#181818" points="692,374.9269,696,365.9269,692,369.9269,688,365.9269,692,374.9269" style="stroke:#181818;stroke-width:1;"/></g><!--SRC=[VLHDZzem4BtxLrZRGqzejQTA5K9QO96Gs5NLLBqFP3PhuO_8SL2pRVzB_ql_MCU90tOmXGCcx-NvUMQUdN0I-Lf0PK4fu2LA-h-Iq3I2p_XEx9z1GuKAjLljjemrHw5h839HNw6LRcEqUm65_D4Aa7cy4E_87nuYK0gDhgkH6-lUJ0JKS3ZIVlmdu_HP6bkYBLn7fXeZHJay9KvbJQlBbP76yW-RJ_xBVhCtKI97LRkEArHxj0rZ7_biHYV12dK9VisqSSYX2Sz8ShvVZFXGWAyeuLqOBURt-uKd_2A9p_p9OYaSM87kxv_xhQfbNvYUYaIRpHQSQ6jHanRgTs3qo_rseuqluNYN6fEVySnt2eI-2qS_U9m_qnCwruNIYfImCjGsNUwedbljqBx20PCN6hGdSS3qBUgh1TiL0yRdyqBeIg8pUh7eQMBKuWLrg70M75QT9uPbu0rodhFillbP6l4hzB6bHjip75iimOpsedsTiOG6Yv7SHlXT4Z0MKuPQU2qNJhnrg2AjfJ77oLyQAOa7HnsT0CjMI1f6ga5OXHAWRXNVcMg79vI95TgOV7PfwRtKPW18Agn8Acco4xAPzbbJ093sgNeFquODhAskM_STA2X0ieac_ZXWxO_LP4VXQOGJjPENyexNu217yTYBeP1J62yuxHlc_HmaNeh_nwTFmjJC4BoRFlBql2SMJS25btyQpG1BHstWP4OmZOadvK9nYpK9HxPwbrkbBvM_6VeB9ti3dD4qwOpbs3dYJLuqlxT9apbaa_l6KoRrop6YOZ6MzYMst6VQmsT_8Q2CNJVgp65fedgzCSIf_L3bYFqF]--></g></svg>